<?xml version="1.0" encoding="UTF-8"?>
<svg id="Layer_1" data-name="Layer 1" xmlns="http://www.w3.org/2000/svg" viewBox="0 0 576 390.37">
  <defs>
    <style>
      .cls-1 {
        stroke-width: 1.07px;
      }

      .cls-1, .cls-2 {
        fill: none;
        stroke: #000;
        stroke-miterlimit: 10;
      }

      .cls-3 {
        fill: #383b5d;
      }

      .cls-4 {
        fill: #521d1e;
      }

      .cls-5, .cls-6, .cls-7, .cls-8, .cls-9, .cls-10 {
        fill: #fff;
      }

      .cls-5, .cls-9 {
        font-family: Aleo-Medium, Aleo;
        font-variation-settings: 'wght' 500;
        font-weight: 500;
      }

      .cls-5, .cls-10 {
        font-size: 14.82px;
      }

      .cls-2 {
        stroke-linecap: round;
      }

      .cls-6 {
        font-family: Aleo-Bold, Aleo;
        font-size: 22px;
        font-variation-settings: 'wght' 700;
        font-weight: 700;
      }

      .cls-11 {
        letter-spacing: -.02em;
      }

      .cls-7 {
        font-size: 12px;
      }

      .cls-7, .cls-8, .cls-10 {
        font-family: Aleo-Light, Aleo;
        font-variation-settings: 'wght' 300;
        font-weight: 300;
      }

      .cls-8 {
        font-size: 16px;
      }

      .cls-9 {
        font-size: 16.94px;
      }

      .cls-12 {
        letter-spacing: -.01em;
      }
    </style>
  </defs>
  <polygon class="cls-3" points="445.8 238.34 445.8 233.86 445.8 229.36 445.8 224.88 445.8 220.38 445.8 215.9 445.8 211.4 445.8 206.92 445.8 202.42 445.8 197.94 445.8 193.44 445.8 188.96 445.8 184.47 445.8 179.98 445.8 175.49 445.8 171 445.8 166.51 445.8 162.02 445.8 157.53 445.8 153.04 445.8 148.55 445.8 144.06 445.8 139.57 445.8 135.08 445.8 130.59 445.8 126.11 445.8 121.61 445.8 117.13 445.8 112.63 445.8 108.15 441.4 108.21 437 108.44 432.61 108.81 428.23 109.33 423.88 110.01 419.55 110.82 415.25 111.77 410.99 112.88 406.76 114.14 402.58 115.53 398.45 117.06 394.38 118.74 390.36 120.54 386.4 122.48 382.52 124.55 378.71 126.77 374.97 129.1 371.32 131.56 367.74 134.14 364.26 136.84 360.88 139.65 357.59 142.58 354.39 145.63 351.31 148.77 348.34 152.02 345.47 155.36 342.72 158.81 340.09 162.35 337.57 165.96 335.19 169.66 332.93 173.45 330.8 177.31 328.8 181.23 326.94 185.21 325.21 189.28 323.62 193.38 322.16 197.54 320.86 201.75 319.68 205.99 318.67 210.28 317.79 214.6 317.06 218.94 316.48 223.3 316.04 227.7 315.76 232.09 315.62 236.49 315.63 240.9 315.79 245.3 316.1 249.7 316.56 254.08 317.16 258.44 317.91 262.78 318.82 267.1 319.87 271.38 321.05 275.62 322.39 279.82 323.86 283.96 325.47 288.07 327.23 292.11 329.11 296.09 331.13 300 333.28 303.85 335.57 307.62 337.97 311.31 340.51 314.92 343.15 318.43 345.92 321.86 348.8 325.19 351.79 328.43 354.9 331.56 358.1 334.58 361.41 337.49 364.81 340.28 368.3 342.97 371.9 345.53 375.56 347.96 379.32 350.28 383.14 352.47 387.03 354.52 391 356.44 395.03 358.23 399.11 359.88 403.24 361.39 407.43 362.76 411.66 363.98 415.93 365.07 420.24 366 424.58 366.8 428.93 367.44 433.31 367.94 437.7 368.29 442.11 368.49 446.51 368.54 450.92 368.45 455.31 368.19 459.7 367.8 464.07 367.26 468.42 366.56 472.75 365.73 477.05 364.74 481.3 363.61 485.51 362.34 489.69 360.93 493.81 359.36 497.88 357.67 501.89 355.85 505.84 353.89 509.7 351.79 513.5 349.56 517.24 347.2 520.88 344.72 524.42 342.12 527.89 339.41 531.27 336.56 534.55 333.62 537.72 330.56 540.79 327.4 543.74 324.14 546.58 320.77 549.32 317.31 551.93 313.77 554.42 310.14 556.78 306.42 559.03 302.63 561.14 298.76 563.12 294.82 564.95 290.82 566.67 286.76 568.24 282.65 569.67 278.47 570.96 274.26 572.1 270.01 573.09 265.72 573.95 261.39 574.65 257.04 575.21 252.67 575.62 248.29 575.89 243.89 576 239.49 575.97 235.08 575.78 230.69 575.44 226.29 574.96 221.91 574.33 217.55 573.56 213.22 572.63 208.9 571.56 204.63 570.35 200.39 568.99 196.2 567.5 192.06 565.87 187.96 564.09 183.94 562.18 179.96 560.14 176.06 557.97 172.23 555.67 168.47 553.25 164.8 550.69 161.21 548.02 157.7 545.24 154.28 542.34 150.97 539.33 147.75 536.2 144.64 532.98 141.64 529.66 138.74 526.24 135.97 522.74 133.3 519.14 130.76 515.46 128.34 511.69 126.05 507.86 123.88 503.94 121.85 499.97 119.95 495.93 118.18 491.85 116.56 487.69 115.06 483.51 113.71 479.26 112.52 474.98 111.46 473.98 115.83 472.97 120.21 471.97 124.58 470.97 128.96 469.95 133.33 468.95 137.71 467.94 142.08 466.94 146.46 465.93 150.83 464.93 155.2 463.91 159.59 462.91 163.96 461.91 168.34 460.9 172.71 459.9 177.09 458.88 181.46 457.88 185.84 456.87 190.21 455.87 194.59 454.86 198.96 453.86 203.33 452.85 207.72 451.84 212.09 450.84 216.47 449.83 220.84 448.83 225.22 447.81 229.59 446.81 233.97 445.8 238.34"/>
  <polygon class="cls-1" points="445.8 238.34 445.8 233.86 445.8 229.36 445.8 224.88 445.8 220.38 445.8 215.9 445.8 211.4 445.8 206.92 445.8 202.42 445.8 197.94 445.8 193.44 445.8 188.96 445.8 184.47 445.8 179.98 445.8 175.49 445.8 171 445.8 166.51 445.8 162.02 445.8 157.53 445.8 153.04 445.8 148.55 445.8 144.06 445.8 139.57 445.8 135.08 445.8 130.59 445.8 126.11 445.8 121.61 445.8 117.13 445.8 112.63 445.8 108.15 441.4 108.21 437 108.44 432.61 108.81 428.23 109.33 423.88 110.01 419.55 110.82 415.25 111.77 410.99 112.88 406.76 114.14 402.58 115.53 398.45 117.06 394.38 118.74 390.36 120.54 386.4 122.48 382.52 124.55 378.71 126.77 374.97 129.1 371.32 131.56 367.74 134.14 364.26 136.84 360.88 139.65 357.59 142.58 354.39 145.63 351.31 148.77 348.34 152.02 345.47 155.36 342.72 158.81 340.09 162.35 337.57 165.96 335.19 169.66 332.93 173.45 330.8 177.31 328.8 181.23 326.94 185.21 325.21 189.28 323.62 193.38 322.16 197.54 320.86 201.75 319.68 205.99 318.67 210.28 317.79 214.6 317.06 218.94 316.48 223.3 316.04 227.7 315.76 232.09 315.62 236.49 315.63 240.9 315.79 245.3 316.1 249.7 316.56 254.08 317.16 258.44 317.91 262.78 318.82 267.1 319.87 271.38 321.05 275.62 322.39 279.82 323.86 283.96 325.47 288.07 327.23 292.11 329.11 296.09 331.13 300 333.28 303.85 335.57 307.62 337.97 311.31 340.51 314.92 343.15 318.43 345.92 321.86 348.8 325.19 351.79 328.43 354.9 331.56 358.1 334.58 361.41 337.49 364.81 340.28 368.3 342.97 371.9 345.53 375.56 347.96 379.32 350.28 383.14 352.47 387.03 354.52 391 356.44 395.03 358.23 399.11 359.88 403.24 361.39 407.43 362.76 411.66 363.98 415.93 365.07 420.24 366 424.58 366.8 428.93 367.44 433.31 367.94 437.7 368.29 442.11 368.49 446.51 368.54 450.92 368.45 455.31 368.19 459.7 367.8 464.07 367.26 468.42 366.56 472.75 365.73 477.05 364.74 481.3 363.61 485.51 362.34 489.69 360.93 493.81 359.36 497.88 357.67 501.89 355.85 505.84 353.89 509.7 351.79 513.5 349.56 517.24 347.2 520.88 344.72 524.42 342.12 527.89 339.41 531.27 336.56 534.55 333.62 537.72 330.56 540.79 327.4 543.74 324.14 546.58 320.77 549.32 317.31 551.93 313.77 554.42 310.14 556.78 306.42 559.03 302.63 561.14 298.76 563.12 294.82 564.95 290.82 566.67 286.76 568.24 282.65 569.67 278.47 570.96 274.26 572.1 270.01 573.09 265.72 573.95 261.39 574.65 257.04 575.21 252.67 575.62 248.29 575.89 243.89 576 239.49 575.97 235.08 575.78 230.69 575.44 226.29 574.96 221.91 574.33 217.55 573.56 213.22 572.63 208.9 571.56 204.63 570.35 200.39 568.99 196.2 567.5 192.06 565.87 187.96 564.09 183.94 562.18 179.96 560.14 176.06 557.97 172.23 555.67 168.47 553.25 164.8 550.69 161.21 548.02 157.7 545.24 154.28 542.34 150.97 539.33 147.75 536.2 144.64 532.98 141.64 529.66 138.74 526.24 135.97 522.74 133.3 519.14 130.76 515.46 128.34 511.69 126.05 507.86 123.88 503.94 121.85 499.97 119.95 495.93 118.18 491.85 116.56 487.69 115.06 483.51 113.71 479.26 112.52 474.98 111.46 473.98 115.83 472.97 120.21 471.97 124.58 470.97 128.96 469.95 133.33 468.95 137.71 467.94 142.08 466.94 146.46 465.93 150.83 464.93 155.2 463.91 159.59 462.91 163.96 461.91 168.34 460.9 172.71 459.9 177.09 458.88 181.46 457.88 185.84 456.87 190.21 455.87 194.59 454.86 198.96 453.86 203.33 452.85 207.72 451.84 212.09 450.84 216.47 449.83 220.84 448.83 225.22 447.81 229.59 446.81 233.97 445.8 238.34"/>
  <polygon class="cls-4" points="445.8 238.34 446.81 233.97 447.81 229.59 448.83 225.22 449.83 220.84 450.84 216.47 451.84 212.09 452.85 207.72 453.86 203.33 454.86 198.96 455.87 194.59 456.87 190.21 457.88 185.84 458.88 181.46 459.9 177.09 460.9 172.71 461.91 168.34 462.91 163.96 463.91 159.59 464.93 155.2 465.93 150.83 466.94 146.46 467.94 142.08 468.95 137.71 469.95 133.33 470.97 128.96 471.97 124.58 472.97 120.21 473.98 115.83 474.98 111.46 470.19 110.45 465.35 109.62 460.49 108.97 455.61 108.51 450.71 108.24 445.8 108.15 445.8 112.63 445.8 117.13 445.8 121.61 445.8 126.11 445.8 130.59 445.8 135.08 445.8 139.57 445.8 144.06 445.8 148.55 445.8 153.04 445.8 157.53 445.8 162.02 445.8 166.51 445.8 171 445.8 175.49 445.8 179.98 445.8 184.47 445.8 188.96 445.8 193.44 445.8 197.94 445.8 202.42 445.8 206.92 445.8 211.4 445.8 215.9 445.8 220.38 445.8 224.88 445.8 229.36 445.8 233.86 445.8 238.34"/>
  <polygon class="cls-1" points="445.8 238.34 446.81 233.97 447.81 229.59 448.83 225.22 449.83 220.84 450.84 216.47 451.84 212.09 452.85 207.72 453.86 203.33 454.86 198.96 455.87 194.59 456.87 190.21 457.88 185.84 458.88 181.46 459.9 177.09 460.9 172.71 461.91 168.34 462.91 163.96 463.91 159.59 464.93 155.2 465.93 150.83 466.94 146.46 467.94 142.08 468.95 137.71 469.95 133.33 470.97 128.96 471.97 124.58 472.97 120.21 473.98 115.83 474.98 111.46 470.19 110.45 465.35 109.62 460.49 108.97 455.61 108.51 450.71 108.24 445.8 108.15 445.8 112.63 445.8 117.13 445.8 121.61 445.8 126.11 445.8 130.59 445.8 135.08 445.8 139.57 445.8 144.06 445.8 148.55 445.8 153.04 445.8 157.53 445.8 162.02 445.8 166.51 445.8 171 445.8 175.49 445.8 179.98 445.8 184.47 445.8 188.96 445.8 193.44 445.8 197.94 445.8 202.42 445.8 206.92 445.8 211.4 445.8 215.9 445.8 220.38 445.8 224.88 445.8 229.36 445.8 233.86 445.8 238.34"/>
  <text class="cls-5" transform="translate(417.92 304.5)"><tspan x="0" y="0">CPU</tspan></text>
  <text class="cls-10" transform="translate(371.96 321.31)"><tspan x="0" y="0">1,866,933.8 Nodes</tspan></text>
  <text class="cls-5" transform="translate(480.02 151.33)"><tspan x="0" y="0">GPU</tspan></text>
  <text class="cls-10" transform="translate(480.02 167)"><tspan x="0" y="0">69,673 Nodes</tspan></text>
  <polygon class="cls-3" points="131.57 238.34 131.57 233.86 131.57 229.36 131.57 224.88 131.57 220.38 131.57 215.9 131.57 211.4 131.57 206.92 131.57 202.42 131.57 197.94 131.57 193.44 131.57 188.96 131.57 184.47 131.57 179.98 131.57 175.49 131.57 171 131.57 166.51 131.57 162.02 131.57 157.53 131.57 153.04 131.57 148.55 131.57 144.06 131.57 139.57 131.57 135.08 131.57 130.59 131.57 126.11 131.57 121.61 131.57 117.13 131.57 112.63 131.57 108.15 127.11 108.21 122.65 108.44 118.21 108.83 113.77 109.37 109.37 110.05 104.99 110.88 100.63 111.88 96.31 113.01 92.05 114.29 87.81 115.71 83.64 117.29 79.52 119 75.46 120.86 71.46 122.84 67.54 124.98 63.69 127.24 59.93 129.63 56.24 132.14 52.65 134.79 49.14 137.56 45.74 140.44 42.43 143.44 39.24 146.55 36.15 149.77 33.17 153.09 30.3 156.52 27.55 160.03 24.93 163.65 22.43 167.34 20.07 171.12 17.83 174.99 15.72 178.92 13.76 182.92 11.92 186.99 10.23 191.12 8.69 195.31 7.29 199.55 6.03 203.84 4.93 208.15 3.96 212.51 3.15 216.9 2.5 221.32 1.98 225.74 1.63 230.19 1.42 234.66 1.38 239.12 1.48 243.58 1.73 248.03 2.14 252.48 2.7 256.91 3.41 261.31 4.28 265.69 5.29 270.03 6.44 274.34 7.76 278.61 9.21 282.83 10.8 287 12.55 291.1 14.42 295.16 16.44 299.14 18.58 303.05 20.87 306.89 23.29 310.64 25.83 314.3 28.49 317.89 31.27 321.37 34.18 324.75 37.21 328.04 40.33 331.22 43.56 334.29 46.91 337.26 50.35 340.1 53.88 342.83 56.56 339.22 59.24 335.62 61.92 332.01 64.59 328.42 67.27 324.81 69.96 321.21 72.64 317.6 75.32 314.01 77.99 310.4 80.67 306.79 83.35 303.19 86.03 299.59 88.71 295.99 91.38 292.38 94.07 288.78 96.75 285.18 99.43 281.58 102.1 277.97 104.78 274.36 107.46 270.77 110.14 267.16 112.83 263.56 115.5 259.96 118.18 256.36 120.86 252.75 123.54 249.15 126.21 245.55 128.89 241.95 131.57 238.34"/>
  <polygon class="cls-1" points="131.57 238.34 131.57 233.86 131.57 229.36 131.57 224.88 131.57 220.38 131.57 215.9 131.57 211.4 131.57 206.92 131.57 202.42 131.57 197.94 131.57 193.44 131.57 188.96 131.57 184.47 131.57 179.98 131.57 175.49 131.57 171 131.57 166.51 131.57 162.02 131.57 157.53 131.57 153.04 131.57 148.55 131.57 144.06 131.57 139.57 131.57 135.08 131.57 130.59 131.57 126.11 131.57 121.61 131.57 117.13 131.57 112.63 131.57 108.15 127.11 108.21 122.65 108.44 118.21 108.83 113.77 109.37 109.37 110.05 104.99 110.88 100.63 111.88 96.31 113.01 92.05 114.29 87.81 115.71 83.64 117.29 79.52 119 75.46 120.86 71.46 122.84 67.54 124.98 63.69 127.24 59.93 129.63 56.24 132.14 52.65 134.79 49.14 137.56 45.74 140.44 42.43 143.44 39.24 146.55 36.15 149.77 33.17 153.09 30.3 156.52 27.55 160.03 24.93 163.65 22.43 167.34 20.07 171.12 17.83 174.99 15.72 178.92 13.76 182.92 11.92 186.99 10.23 191.12 8.69 195.31 7.29 199.55 6.03 203.84 4.93 208.15 3.96 212.51 3.15 216.9 2.5 221.32 1.98 225.74 1.63 230.19 1.42 234.66 1.38 239.12 1.48 243.58 1.73 248.03 2.14 252.48 2.7 256.91 3.41 261.31 4.28 265.69 5.29 270.03 6.44 274.34 7.76 278.61 9.21 282.83 10.8 287 12.55 291.1 14.42 295.16 16.44 299.14 18.58 303.05 20.87 306.89 23.29 310.64 25.83 314.3 28.49 317.89 31.27 321.37 34.18 324.75 37.21 328.04 40.33 331.22 43.56 334.29 46.91 337.26 50.35 340.1 53.88 342.83 56.56 339.22 59.24 335.62 61.92 332.01 64.59 328.42 67.27 324.81 69.96 321.21 72.64 317.6 75.32 314.01 77.99 310.4 80.67 306.79 83.35 303.19 86.03 299.59 88.71 295.99 91.38 292.38 94.07 288.78 96.75 285.18 99.43 281.58 102.1 277.97 104.78 274.36 107.46 270.77 110.14 267.16 112.83 263.56 115.5 259.96 118.18 256.36 120.86 252.75 123.54 249.15 126.21 245.55 128.89 241.95 131.57 238.34"/>
  <polygon class="cls-4" points="131.57 238.34 128.89 241.95 126.21 245.55 123.54 249.15 120.86 252.75 118.18 256.36 115.5 259.96 112.83 263.56 110.14 267.16 107.46 270.77 104.78 274.36 102.1 277.97 99.43 281.58 96.75 285.18 94.07 288.78 91.38 292.38 88.71 295.99 86.03 299.59 83.35 303.19 80.67 306.79 77.99 310.4 75.32 314.01 72.64 317.6 69.96 321.21 67.27 324.81 64.59 328.42 61.92 332.01 59.24 335.62 56.56 339.22 53.88 342.83 57.48 345.41 61.17 347.87 64.95 350.2 68.79 352.4 72.72 354.48 76.7 356.42 80.76 358.22 84.87 359.88 89.03 361.39 93.26 362.77 97.51 364.01 101.81 365.09 106.14 366.04 110.51 366.83 114.89 367.46 119.31 367.97 123.72 368.31 128.15 368.5 132.59 368.54 137.03 368.42 141.45 368.17 145.87 367.76 150.26 367.19 154.65 366.48 158.99 365.63 163.31 364.61 167.6 363.46 171.83 362.16 176.03 360.72 180.17 359.13 184.26 357.41 188.28 355.54 192.23 353.54 196.12 351.41 199.93 349.15 203.68 346.75 207.33 344.24 210.89 341.6 214.36 338.84 217.73 335.96 221.01 332.97 224.17 329.87 227.24 326.66 230.19 323.35 233.02 319.94 235.75 316.44 238.35 312.85 240.82 309.17 243.17 305.4 245.39 301.57 247.48 297.65 249.43 293.67 251.25 289.62 252.92 285.52 254.47 281.36 255.86 277.15 257.1 272.89 258.21 268.6 259.17 264.27 259.98 259.91 260.64 255.53 261.14 251.12 261.51 246.69 261.71 242.27 261.77 237.84 261.68 233.4 261.44 228.97 261.04 224.56 260.5 220.15 259.81 215.77 258.96 211.42 257.97 207.1 256.83 202.81 255.55 198.56 254.12 194.37 252.55 190.22 250.85 186.13 249 182.1 247.01 178.13 244.89 174.24 242.64 170.41 240.27 166.67 237.76 163.01 235.14 159.44 232.39 155.96 229.52 152.57 226.54 149.28 223.46 146.1 220.27 143.02 216.97 140.06 213.57 137.21 210.08 134.47 206.5 131.86 202.82 129.37 199.07 127.01 195.24 124.77 191.33 122.67 187.36 120.7 183.32 118.87 179.22 117.17 175.07 115.62 170.86 114.22 166.61 112.95 162.32 111.82 158 110.85 153.64 110.03 149.26 109.34 144.85 108.82 140.44 108.44 136.01 108.21 131.57 108.15 131.57 112.63 131.57 117.13 131.57 121.61 131.57 126.11 131.57 130.59 131.57 135.08 131.57 139.57 131.57 144.06 131.57 148.55 131.57 153.04 131.57 157.53 131.57 162.02 131.57 166.51 131.57 171 131.57 175.49 131.57 179.98 131.57 184.47 131.57 188.96 131.57 193.44 131.57 197.94 131.57 202.42 131.57 206.92 131.57 211.4 131.57 215.9 131.57 220.38 131.57 224.88 131.57 229.36 131.57 233.86 131.57 238.34"/>
  <polygon class="cls-1" points="131.57 238.34 128.89 241.95 126.21 245.55 123.54 249.15 120.86 252.75 118.18 256.36 115.5 259.96 112.83 263.56 110.14 267.16 107.46 270.77 104.78 274.36 102.1 277.97 99.43 281.58 96.75 285.18 94.07 288.78 91.38 292.38 88.71 295.99 86.03 299.59 83.35 303.19 80.67 306.79 77.99 310.4 75.32 314.01 72.64 317.6 69.96 321.21 67.27 324.81 64.59 328.42 61.92 332.01 59.24 335.62 56.56 339.22 53.88 342.83 57.48 345.41 61.17 347.87 64.95 350.2 68.79 352.4 72.72 354.48 76.7 356.42 80.76 358.22 84.87 359.88 89.03 361.39 93.26 362.77 97.51 364.01 101.81 365.09 106.14 366.04 110.51 366.83 114.89 367.46 119.31 367.97 123.72 368.31 128.15 368.5 132.59 368.54 137.03 368.42 141.45 368.17 145.87 367.76 150.26 367.19 154.65 366.48 158.99 365.63 163.31 364.61 167.6 363.46 171.83 362.16 176.03 360.72 180.17 359.13 184.26 357.41 188.28 355.54 192.23 353.54 196.12 351.41 199.93 349.15 203.68 346.75 207.33 344.24 210.89 341.6 214.36 338.84 217.73 335.96 221.01 332.97 224.17 329.87 227.24 326.66 230.19 323.35 233.02 319.94 235.75 316.44 238.35 312.85 240.82 309.17 243.17 305.4 245.39 301.57 247.48 297.65 249.43 293.67 251.25 289.62 252.92 285.52 254.47 281.36 255.86 277.15 257.1 272.89 258.21 268.6 259.17 264.27 259.98 259.91 260.64 255.53 261.14 251.12 261.51 246.69 261.71 242.27 261.77 237.84 261.68 233.4 261.44 228.97 261.04 224.56 260.5 220.15 259.81 215.77 258.96 211.42 257.97 207.1 256.83 202.81 255.55 198.56 254.12 194.37 252.55 190.22 250.85 186.13 249 182.1 247.01 178.13 244.89 174.24 242.64 170.41 240.27 166.67 237.76 163.01 235.14 159.44 232.39 155.96 229.52 152.57 226.54 149.28 223.46 146.1 220.27 143.02 216.97 140.06 213.57 137.21 210.08 134.47 206.5 131.86 202.82 129.37 199.07 127.01 195.24 124.77 191.33 122.67 187.36 120.7 183.32 118.87 179.22 117.17 175.07 115.62 170.86 114.22 166.61 112.95 162.32 111.82 158 110.85 153.64 110.03 149.26 109.34 144.85 108.82 140.44 108.44 136.01 108.21 131.57 108.15 131.57 112.63 131.57 117.13 131.57 121.61 131.57 126.11 131.57 130.59 131.57 135.08 131.57 139.57 131.57 144.06 131.57 148.55 131.57 153.04 131.57 157.53 131.57 162.02 131.57 166.51 131.57 171 131.57 175.49 131.57 179.98 131.57 184.47 131.57 188.96 131.57 193.44 131.57 197.94 131.57 202.42 131.57 206.92 131.57 211.4 131.57 215.9 131.57 220.38 131.57 224.88 131.57 229.36 131.57 233.86 131.57 238.34"/>
  <text class="cls-5" transform="translate(52.27 218.26)"><tspan x="0" y="0">CPU</tspan></text>
  <text class="cls-10" transform="translate(28.1 234.84)"><tspan x="0" y="0">73,277.8 W</tspan></text>
  <text class="cls-5" transform="translate(180.16 248.5)"><tspan x="0" y="0">GPU</tspan></text>
  <text class="cls-10" transform="translate(152.72 264.94)"><tspan x="0" y="0">110,726.9 W</tspan></text>
  <text class="cls-9" transform="translate(382.24 72.1)"><tspan x="0" y="0">Nodes Allocated </tspan><tspan class="cls-12" x="21.82" y="20.32">P</tspan><tspan x="32.05" y="20.32">er Month</tspan></text>
  <text class="cls-9" transform="translate(63.15 72.1)"><tspan class="cls-12" x="0" y="0">P</tspan><tspan x="10.23" y="0">ower Consumed </tspan><tspan class="cls-12" x="26.68" y="20.32">P</tspan><tspan x="36.91" y="20.32">er Month</tspan></text>
  <text class="cls-7" transform="translate(334.88 388.11)"><tspan x="0" y="0">Source: Oscar Prometheus &amp; Slurm Databases</tspan></text>
  <text class="cls-6" transform="translate(0 21.21)"><tspan x="0" y="0">GPU power consumption d</tspan><tspan class="cls-11" x="278.71" y="0">r</tspan><tspan x="287.93" y="0">amtically outscales CPUs</tspan></text>
  <text class="cls-8" transform="translate(0 42.93)"><tspan x="0" y="0">Comparing monthly power consumption and usage between hardware types.</tspan></text>
  <line class="cls-2" x1="456.68" y1="146.33" x2="474.98" y2="146.33"/>
</svg>